<svg width="14" height="15" viewBox="0 0 14 15" fill="none" xmlns="http://www.w3.org/2000/svg">
<path fill-rule="evenodd" clip-rule="evenodd" d="M9.93333 1.71333H10C11.8409 1.71333 13.3333 3.20572 13.3333 5.04667V11.0467C13.3333 12.8876 11.8409 14.38 10 14.38H3.33333C2.44928 14.38 1.60143 14.0288 0.976311 13.4037C0.351189 12.7786 0 11.9307 0 11.0467V5.04667C0 3.20572 1.49238 1.71333 3.33333 1.71333H3.4V0.5C3.4 0.223858 3.62386 0 3.9 0C4.17614 0 4.4 0.223858 4.4 0.5V1.71333H8.93333V0.5C8.93333 0.223858 9.15719 0 9.43333 0C9.70947 0 9.93333 0.223858 9.93333 0.5V1.71333ZM3.66667 5.77333H9.66667C9.94281 5.77333 10.1667 5.54948 10.1667 5.27333C10.1667 4.99719 9.94281 4.77333 9.66667 4.77333H3.66667C3.39052 4.77333 3.16667 4.99719 3.16667 5.27333C3.16667 5.54948 3.39052 5.77333 3.66667 5.77333Z" fill="#64748B"/>
</svg>
